<?xml version="1.0" encoding="utf-8"?>
<!-- Generator: Adobe Illustrator 16.0.4, SVG Export Plug-In . SVG Version: 6.00 Build 0)  -->
<!DOCTYPE svg PUBLIC "-//W3C//DTD SVG 1.1//EN" "http://www.w3.org/Graphics/SVG/1.1/DTD/svg11.dtd">
<svg version="1.1" id="Layer_1" xmlns="http://www.w3.org/2000/svg" xmlns:xlink="http://www.w3.org/1999/xlink" x="0px" y="0px"
	 width="238.583px" height="84.251px" viewBox="0 0 238.583 84.251" enable-background="new 0 0 238.583 84.251"
	 xml:space="preserve">
<g>
	<path fill="#5F6062" d="M85.323,58.382l2.892-4.765c1.445,1.553,3.373,2.944,6.104,2.944c3.855,0,6.264-2.57,6.264-6.479V25.774
		h6.265V50.19c0,8.139-5.14,11.94-12.047,11.94C91.106,62.13,87.84,61.059,85.323,58.382z"/>
	<path fill="#5F6062" d="M110.006,48.53c0-7.389,5.086-13.546,13.279-13.546c8.299,0,13.332,6.157,13.332,13.546
		c0,7.443-5.033,13.601-13.332,13.601C115.093,62.13,110.006,55.973,110.006,48.53z M130.781,48.53c0-4.551-2.677-8.566-7.496-8.566
		c-4.766,0-7.443,4.016-7.443,8.566c0,4.605,2.677,8.621,7.443,8.621C128.104,57.151,130.781,53.135,130.781,48.53z"/>
	<path fill="#5F6062" d="M140.74,55.491V40.552h-4.283v-4.926h4.283v-7.067h5.622v7.067h5.248v4.926h-5.248v13.546
		c0,1.768,0.857,3.053,2.463,3.053c1.071,0,2.088-0.428,2.517-0.91l1.339,4.23c-1.018,0.963-2.677,1.659-5.301,1.659
		C143.042,62.13,140.74,59.774,140.74,55.491z"/>
	<path fill="#5F6062" d="M157.819,55.491V40.552h-4.283v-4.926h4.283v-7.067h5.622v7.067h5.248v4.926h-5.248v13.546
		c0,1.768,0.857,3.053,2.463,3.053c1.07,0,2.088-0.428,2.516-0.91l1.34,4.23c-1.018,0.963-2.678,1.659-5.301,1.659
		C160.122,62.13,157.819,59.774,157.819,55.491z"/>
	<path fill="#5F6062" d="M172.918,58.329c0-2.035,1.713-3.748,3.748-3.748c2.034,0,3.748,1.713,3.748,3.748
		s-1.714,3.748-3.748,3.748C174.631,62.077,172.918,60.364,172.918,58.329z"/>
	<path fill="#5F6062" d="M184.215,61.488V25.774h5.622v35.714H184.215z"/>
	<path fill="#5F6062" d="M196.851,66.575c0.589,0.268,1.499,0.428,2.142,0.428c1.768,0,2.945-0.535,3.695-2.248l1.285-2.945
		l-10.602-26.183h5.996l7.55,19.383l7.55-19.383h6.05l-12.476,30.52c-1.767,4.391-4.872,5.782-8.888,5.837
		c-0.804,0-2.356-0.161-3.159-0.375L196.851,66.575z"/>
</g>
<g>
	<path fill="#5F6062" d="M66.91,17.854c-6.261-6.001-14.75-9.696-24.107-9.696c-19.252,0-34.859,15.607-34.859,34.859
		c0,5.326,1.199,10.37,3.334,14.885l12.039-25.719C47.248,27.361,64.765,20.25,66.91,17.854z"/>
	<polygon fill="#5F6062" points="66.94,17.882 66.938,17.88 66.94,17.882 	"/>
	<path fill="#5F6062" d="M66.912,17.853c0,0-0.001,0.001-0.001,0.001c0.009,0.009,0.019,0.018,0.028,0.026L66.912,17.853z"/>
	<path fill="#5F6062" d="M68.609,19.582l-0.154,0.173c-2.626,3.222-8.717,18.748-13.321,41.6l-26.07,13.708
		c4.216,1.81,8.859,2.815,13.738,2.815c19.252,0,34.86-15.607,34.86-34.86C77.663,33.995,74.234,25.772,68.609,19.582z"/>
	<path fill="#FFFFFF" d="M68.767,19.31c-0.012-0.009-0.023-0.017-0.024-0.015c0,0-0.002-0.002-0.001-0.002
		c0,0,0.001,0.002,0.001,0.002C68.744,19.293,68.755,19.301,68.767,19.31z"/>
	<path fill="#FFFFFF" d="M36.906,45.867c-0.063,0-0.127,0.016-0.191,0.019c0.089-0.004,0.178-0.016,0.266-0.014
		C36.956,45.871,36.931,45.867,36.906,45.867z"/>
	<path fill="#FF7B7E" d="M63.946,25.156L41.186,47.454c0.82,2.029,0.341,4.41-1.282,6.02c-1.08,1.068-2.488,1.656-3.967,1.656
		c-1.231,0-2.42-0.426-3.348-1.2l-0.073-0.061l-0.061-0.073c-1.768-2.12-1.572-5.265,0.456-7.313
		c1.065-1.075,2.484-1.667,3.995-1.667c0.701,0,1.389,0.132,2.023,0.386l22.303-22.764c-7.143,3.629-19.527,8.486-35.52,11.755
		L12.447,58.016c1.484,3.291,3.631,6.317,6.554,9.238c2.845,2.846,6.169,5.094,9.887,6.688l23.305-13.265
		C55.46,44.682,60.317,32.299,63.946,25.156z"/>
	<path fill="#FF7B7E" d="M68.767,19.31c-0.011-0.008-0.023-0.017-0.026-0.017c0,0,0.001,0.002,0.001,0.002
		C68.744,19.293,68.755,19.301,68.767,19.31z"/>
</g>
<g>
</g>
<g>
</g>
<g>
</g>
<g>
</g>
<g>
</g>
<g>
</g>
<g>
</g>
<g>
</g>
<g>
</g>
<g>
</g>
<g>
</g>
<g>
</g>
<g>
</g>
<g>
</g>
<g>
</g>
</svg>
